<svg width="78" height="53" viewBox="0 0 78 53" fill="none" xmlns="http://www.w3.org/2000/svg">
<g clip-path="url(#clip0_3_813)">
<path d="M41.6639 51.5891L76.8687 16.3791C77.2202 16.0288 77.4991 15.6124 77.6894 15.1541C77.8797 14.6957 77.9776 14.2043 77.9776 13.708C77.9776 13.2117 77.8797 12.7202 77.6894 12.2619C77.4991 11.8035 77.2202 11.3872 76.8687 11.0368L67.6214 1.78433C67.0573 1.21849 66.3871 0.769585 65.6492 0.463384C64.9112 0.157183 64.12 -0.000290055 63.3211 4.01073e-07H14.7073C13.9077 0.00016556 13.1159 0.157827 12.3772 0.463984C11.6385 0.770141 10.9674 1.2188 10.4021 1.78433L1.12253 11.0529C0.414041 11.7471 0.0102935 12.6943 9.2438e-05 13.6862C-0.00973967 14.6781 0.374837 15.6333 1.06923 16.3417L1.12253 16.395L36.3273 51.6053C36.6777 51.9567 37.094 52.2356 37.5523 52.4258C38.0107 52.6161 38.5021 52.7141 38.9983 52.7141C39.4946 52.7141 39.986 52.6161 40.4444 52.4258C40.9027 52.2356 41.319 51.9567 41.6694 51.6053L41.6639 51.5891Z" fill="url(#paint0_linear_3_813)"/>
<path opacity="0.4" d="M10.1187 2.06731C10.7445 1.4384 11.5172 0.975282 12.3668 0.719757C13.2164 0.464232 14.1164 0.42435 14.9853 0.603713L76.1208 13.0027C76.6061 13.103 77.032 13.3915 77.3053 13.805C77.5786 14.2184 77.6771 14.7233 77.5792 15.2092C77.5538 15.336 77.5144 15.4596 77.4616 15.5777C77.88 14.8622 78.0488 14.0278 77.9415 13.2059C77.8341 12.3839 77.4567 11.6209 76.8686 11.0368L67.6213 1.78433C67.0572 1.21849 66.387 0.769585 65.649 0.463384C64.9111 0.157183 64.1199 -0.000290055 63.321 4.01073e-07H14.7072C13.0923 0.000467769 11.5437 0.642293 10.402 1.78433L10.1187 2.06761V2.06731Z" fill="url(#paint1_linear_3_813)"/>
<path opacity="0.4" d="M64.5123 2.70849L60.9546 9.93659L76.1205 13.0027C76.6059 13.103 77.0318 13.3914 77.3052 13.8049C77.5785 14.2184 77.6771 14.7233 77.5792 15.2092C77.5538 15.336 77.5144 15.4596 77.4616 15.5777C77.88 14.8622 78.0488 14.0278 77.9415 13.2059C77.8341 12.3839 77.4567 11.6209 76.8686 11.0368L67.6213 1.78434C67.0572 1.21849 66.387 0.769591 65.649 0.46339C64.9111 0.157189 64.1199 -0.000283784 63.321 6.672e-06H62.851C63.1695 -0.000846545 63.4829 0.0801458 63.7611 0.235216C64.0393 0.390287 64.2729 0.614234 64.4397 0.88558C64.6065 1.15693 64.7007 1.46657 64.7134 1.78481C64.7261 2.10306 64.6569 2.41923 64.5123 2.70301V2.70849Z" fill="url(#paint2_linear_3_813)"/>
<path d="M77.4616 15.5991C77.6583 15.1442 77.6664 14.6299 77.4841 14.1691C77.3018 13.7083 76.944 13.3387 76.4893 13.1416C76.3712 13.0889 76.2476 13.0496 76.1208 13.0243L60.9543 9.93597L40.5474 51.1188C40.2833 51.6526 39.8376 52.0748 39.2904 52.3097C38.7431 52.5447 38.1301 52.577 37.5612 52.4009C38.2489 52.6854 39.0054 52.7602 39.7355 52.6157C40.4656 52.4712 41.1366 52.1139 41.6641 51.5888L76.8683 16.3791C77.1028 16.1493 77.3026 15.8865 77.4613 15.5991H77.4616Z" fill="url(#paint3_linear_3_813)"/>
</g>
<defs>
<linearGradient id="paint0_linear_3_813" x1="21.8555" y1="34.1455" x2="39.3751" y2="3.79583" gradientUnits="userSpaceOnUse">
<stop stop-color="#8855FF"/>
<stop offset="1" stop-color="#00B6FF"/>
</linearGradient>
<linearGradient id="paint1_linear_3_813" x1="43.5017" y1="7.92346" x2="44.0674" y2="5.58693" gradientUnits="userSpaceOnUse">
<stop offset="0.07" stop-color="white"/>
<stop offset="0.89" stop-color="#009FFF"/>
</linearGradient>
<linearGradient id="paint2_linear_3_813" x1="64.2507" y1="34.6706" x2="81.7272" y2="49.6141" gradientUnits="userSpaceOnUse">
<stop offset="0.07" stop-color="white"/>
<stop offset="0.89" stop-color="#009FFF"/>
</linearGradient>
<linearGradient id="paint3_linear_3_813" x1="41.9731" y1="26.8066" x2="68.1585" y2="35.8726" gradientUnits="userSpaceOnUse">
<stop stop-color="#4036C1"/>
<stop offset="0.98" stop-color="#539EFF"/>
</linearGradient>
<clipPath id="clip0_3_813">
<rect width="77.977" height="53" fill="white"/>
</clipPath>
</defs>
</svg>
